<svg width="1920.000000" height="460.000000" viewBox="0 0 1920 460" fill="none" xmlns="http://www.w3.org/2000/svg" xmlns:xlink="http://www.w3.org/1999/xlink">
	<desc>
			Created with Pixso.
	</desc>
	<defs/>
	<mask id="mask2_552" mask-type="alpha" maskUnits="userSpaceOnUse" x="0.000000" y="0.000000" width="1920.000000" height="460.000000">
		<rect id="Rectangle 1323" rx="20.000000" width="1920.000000" height="460.000000" fill="#D52027" fill-opacity="1.000000"/>
	</mask>
	<g mask="url(#mask2_552)">
		<path id="%%%%%%%%%%" d="M-8.73 397.94L-8.73 397.94Q-10 393.74 -10 389.14Q-10 382.6 -7.61 377.09L-7.61 377.09Q-6.99 375.67 -6.22 374.32Q-4.36 371.22 -1.88 368.74Q0.91 365.95 4.49 363.95Q6.14 362.98 7.9 362.25Q13.3 360 19.64 360Q27.06 360 33 362.96Q33.91 363.42 34.79 363.95Q38.61 366.09 41.48 369.13Q43.68 371.46 45.33 374.32C47.85 378.71 49.12 383.65 49.12 389.14C49.12 394.41 47.85 399.3 45.33 403.8Q43.85 406.37 41.93 408.53Q38.91 411.93 34.79 414.34Q33.91 414.87 33 415.32Q27.06 418.29 19.64 418.29Q13.3 418.29 7.9 416.04Q6.14 415.31 4.49 414.34Q0.61 412.07 -2.35 408.93Q-4.53 406.6 -6.22 403.8Q-7.8 400.97 -8.73 397.94ZM136.59 403.8C134.07 399.3 132.8 394.41 132.8 389.14C132.8 383.65 134.07 378.71 136.59 374.32Q138.45 371.22 140.93 368.74Q143.72 365.95 147.3 363.95C151.8 361.31 156.85 360 162.45 360C168.16 360 173.21 361.31 177.6 363.95C182.1 366.47 185.61 369.93 188.14 374.32C190.66 378.71 191.93 383.65 191.93 389.14C191.93 394.41 190.66 399.3 188.14 403.8C185.61 408.19 182.1 411.71 177.6 414.34C173.21 416.98 168.16 418.29 162.45 418.29C156.85 418.29 151.8 416.98 147.3 414.34Q143.42 412.07 140.46 408.93Q138.27 406.6 136.59 403.8ZM279.4 403.8C276.88 399.3 275.61 394.41 275.61 389.14C275.61 383.65 276.88 378.71 279.4 374.32Q281.26 371.22 283.74 368.74L283.74 368.74Q286.53 365.95 290.1 363.95C294.61 361.31 299.66 360 305.26 360C310.97 360 316.01 361.31 320.41 363.95C324.91 366.47 328.42 369.93 330.95 374.32C333.47 378.71 334.73 383.65 334.73 389.14C334.73 394.41 333.47 399.3 330.95 403.8C328.42 408.19 324.91 411.71 320.41 414.34C316.01 416.98 310.97 418.29 305.26 418.29C299.66 418.29 294.61 416.98 290.1 414.34Q286.23 412.07 283.27 408.93Q281.08 406.6 279.4 403.8ZM422.21 403.8C419.69 399.3 418.42 394.41 418.42 389.14C418.42 383.65 419.69 378.71 422.21 374.32Q424.07 371.22 426.55 368.74L426.55 368.74Q429.34 365.95 432.91 363.95C437.42 361.31 442.47 360 448.07 360C453.77 360 458.82 361.31 463.22 363.95C467.72 366.47 471.23 369.93 473.76 374.32C476.28 378.71 477.54 383.65 477.54 389.14C477.54 394.41 476.28 399.3 473.76 403.8C471.23 408.19 467.72 411.71 463.22 414.34C458.82 416.98 453.77 418.29 448.07 418.29C442.47 418.29 437.42 416.98 432.91 414.34Q429.04 412.07 426.08 408.93Q423.89 406.6 422.21 403.8ZM565.02 403.8C562.49 399.3 561.23 394.41 561.23 389.14C561.23 383.65 562.49 378.71 565.02 374.32C567.65 369.93 571.22 366.47 575.72 363.95C580.23 361.31 585.28 360 590.87 360C596.58 360 601.63 361.31 606.03 363.95Q609.85 366.09 612.72 369.13L612.72 369.13Q614.92 371.47 616.56 374.32C619.09 378.71 620.35 383.65 620.35 389.14C620.35 394.41 619.09 399.3 616.56 403.8Q615.09 406.37 613.16 408.53Q610.15 411.93 606.03 414.34C601.63 416.98 596.58 418.29 590.87 418.29C585.28 418.29 580.23 416.98 575.72 414.34C571.22 411.71 567.65 408.19 565.02 403.8ZM707.83 403.8C705.3 399.3 704.04 394.41 704.04 389.14C704.04 383.65 705.3 378.71 707.83 374.32C710.46 369.93 714.03 366.47 718.53 363.95C723.03 361.31 728.08 360 733.68 360C739.39 360 744.44 361.31 748.83 363.95Q752.66 366.09 755.53 369.13L755.53 369.13Q757.73 371.47 759.37 374.32C761.9 378.71 763.16 383.65 763.16 389.14C763.16 394.41 761.9 399.3 759.37 403.8Q757.9 406.37 755.97 408.53Q752.96 411.93 748.83 414.34C744.44 416.98 739.39 418.29 733.68 418.29C728.08 418.29 723.03 416.98 718.53 414.34C714.03 411.71 710.46 408.19 707.83 403.8ZM850.64 403.8C848.11 399.3 846.85 394.41 846.85 389.14C846.85 383.65 848.11 378.71 850.64 374.32C853.27 369.93 856.84 366.47 861.34 363.95C865.84 361.31 870.89 360 876.49 360C882.2 360 887.25 361.31 891.64 363.95Q895.47 366.09 898.34 369.13L898.34 369.13Q900.54 371.46 902.18 374.32C904.71 378.71 905.97 383.65 905.97 389.14C905.97 394.41 904.71 399.3 902.18 403.8Q900.71 406.37 898.78 408.53L898.78 408.53Q895.76 411.93 891.64 414.34C887.25 416.98 882.2 418.29 876.49 418.29C870.89 418.29 865.84 416.98 861.34 414.34C856.84 411.71 853.27 408.19 850.64 403.8ZM993.45 403.8C990.92 399.3 989.66 394.41 989.66 389.14C989.66 383.65 990.92 378.71 993.45 374.32C996.08 369.93 999.65 366.47 1004.16 363.95C1008.66 361.31 1013.71 360 1019.31 360C1025.02 360 1030.06 361.31 1034.46 363.95Q1038.28 366.09 1041.15 369.13L1041.15 369.13Q1043.35 371.46 1045 374.32C1047.52 378.71 1048.78 383.65 1048.78 389.14C1048.78 394.41 1047.52 399.3 1045 403.8Q1043.52 406.37 1041.59 408.53L1041.59 408.54Q1038.57 411.93 1034.46 414.34C1030.06 416.98 1025.02 418.29 1019.31 418.29C1013.71 418.29 1008.66 416.98 1004.16 414.34C999.65 411.71 996.08 408.19 993.45 403.8ZM1136.26 403.8C1133.74 399.3 1132.47 394.41 1132.47 389.14C1132.47 383.65 1133.74 378.71 1136.26 374.32C1138.9 369.93 1142.46 366.47 1146.97 363.95C1151.47 361.31 1156.52 360 1162.12 360C1167.81 360 1172.88 361.31 1177.27 363.95Q1181.09 366.09 1183.96 369.13L1183.96 369.13Q1186.16 371.46 1187.81 374.32C1190.32 378.71 1191.59 383.65 1191.59 389.14C1191.59 394.41 1190.32 399.3 1187.81 403.8Q1186.32 406.37 1184.4 408.53L1184.4 408.54Q1181.39 411.93 1177.27 414.34C1172.88 416.98 1167.81 418.29 1162.12 418.29C1156.52 418.29 1151.47 416.98 1146.97 414.34C1142.46 411.71 1138.9 408.19 1136.26 403.8ZM1279.06 403.8C1276.54 399.3 1275.28 394.41 1275.28 389.14C1275.28 383.65 1276.54 378.71 1279.06 374.32C1281.71 369.93 1285.27 366.47 1289.77 363.95C1294.28 361.31 1299.32 360 1304.93 360C1310.63 360 1315.68 361.31 1320.08 363.95Q1323.9 366.09 1326.77 369.13L1326.77 369.13Q1328.97 371.46 1330.62 374.32C1333.14 378.71 1334.4 383.65 1334.4 389.14C1334.4 394.41 1333.14 399.3 1330.62 403.8Q1329.14 406.37 1327.21 408.53L1327.21 408.54Q1324.2 411.93 1320.08 414.34C1315.68 416.98 1310.63 418.29 1304.93 418.29C1299.32 418.29 1294.28 416.98 1289.77 414.34C1285.27 411.71 1281.71 408.19 1279.06 403.8ZM4.32 477.91L88.31 362.63L109.88 362.63L25.9 477.91L4.32 477.91ZM147.13 477.91L231.12 362.63L252.69 362.63L168.71 477.91L147.13 477.91ZM289.94 477.91L373.93 362.63L395.5 362.63L311.51 477.91L289.94 477.91ZM432.75 477.91L516.74 362.63L538.31 362.63L454.32 477.91L432.75 477.91ZM575.56 477.91L659.55 362.63L681.12 362.63L597.13 477.91L575.56 477.91ZM718.37 477.91L802.36 362.63L823.93 362.63L739.94 477.91L718.37 477.91ZM861.18 477.91L945.16 362.63L966.74 362.63L882.75 477.91L861.18 477.91ZM1003.99 477.91L1087.98 362.63L1109.55 362.63L1025.56 477.91L1003.99 477.91ZM1146.8 477.91L1230.79 362.63L1252.36 362.63L1168.37 477.91L1146.8 477.91ZM1289.61 477.91L1373.6 362.63L1395.17 362.63L1311.18 477.91L1289.61 477.91ZM9.26 382.89C8.27 384.75 7.78 386.84 7.78 389.14C7.78 391.34 8.27 393.43 9.26 395.4C10.25 397.27 11.62 398.75 13.38 399.85C15.14 400.95 17.22 401.5 19.64 401.5C22.05 401.5 24.08 400.95 25.73 399.85C27.49 398.75 28.86 397.27 29.85 395.4C30.84 393.43 31.33 391.34 31.33 389.14C31.33 386.84 30.84 384.75 29.85 382.89C28.86 381.02 27.49 379.54 25.73 378.44C24.08 377.23 22.05 376.63 19.64 376.63C17.22 376.63 15.14 377.23 13.38 378.44C11.62 379.54 10.25 381.02 9.26 382.89ZM152.07 382.89C151.08 384.75 150.59 386.84 150.59 389.14C150.59 391.34 151.08 393.43 152.07 395.4C153.06 397.27 154.43 398.75 156.19 399.85C157.95 400.95 160.03 401.5 162.45 401.5C164.86 401.5 166.89 400.95 168.54 399.85C170.3 398.75 171.67 397.27 172.66 395.4C173.65 393.43 174.14 391.34 174.14 389.14C174.14 386.84 173.65 384.75 172.66 382.89C171.67 381.02 170.3 379.54 168.54 378.44C166.89 377.23 164.86 376.63 162.45 376.63C160.03 376.63 157.95 377.23 156.19 378.44C154.43 379.54 153.06 381.02 152.07 382.89ZM294.88 382.89C293.89 384.75 293.4 386.84 293.4 389.14C293.4 391.34 293.89 393.43 294.88 395.4C295.87 397.27 297.24 398.75 299 399.85C300.76 400.95 302.84 401.5 305.26 401.5C307.67 401.5 309.7 400.95 311.35 399.85C313.11 398.75 314.48 397.27 315.47 395.4C316.45 393.43 316.95 391.34 316.95 389.14C316.95 386.84 316.45 384.75 315.47 382.89C314.48 381.02 313.11 379.54 311.35 378.44C309.7 377.23 307.67 376.63 305.26 376.63C302.84 376.63 300.76 377.23 299 378.44C297.24 379.54 295.87 381.02 294.88 382.89ZM437.69 382.89C436.7 384.75 436.21 386.84 436.21 389.14C436.21 391.34 436.7 393.43 437.69 395.4C438.68 397.27 440.05 398.75 441.81 399.85C443.56 400.95 445.65 401.5 448.07 401.5C450.48 401.5 452.51 400.95 454.16 399.85C455.92 398.75 457.29 397.27 458.28 395.4C459.26 393.43 459.76 391.34 459.76 389.14C459.76 386.84 459.26 384.75 458.28 382.89C457.29 381.02 455.92 379.54 454.16 378.44C452.51 377.23 450.48 376.63 448.07 376.63C445.65 376.63 443.56 377.23 441.81 378.44C440.05 379.54 438.68 381.02 437.69 382.89ZM580.5 382.89C579.51 384.75 579.02 386.84 579.02 389.14C579.02 391.34 579.51 393.43 580.5 395.4C581.49 397.27 582.86 398.75 584.62 399.85C586.37 400.95 588.46 401.5 590.87 401.5C593.29 401.5 595.32 400.95 596.97 399.85C598.72 398.75 600.1 397.27 601.08 395.4C602.07 393.43 602.57 391.34 602.57 389.14C602.57 386.84 602.07 384.75 601.08 382.89C600.1 381.02 598.72 379.54 596.97 378.44C595.32 377.23 593.29 376.63 590.87 376.63C588.46 376.63 586.37 377.23 584.62 378.44C582.86 379.54 581.49 381.02 580.5 382.89ZM723.31 382.89C722.32 384.75 721.83 386.84 721.83 389.14C721.83 391.34 722.32 393.43 723.31 395.4C724.3 397.27 725.67 398.75 727.43 399.85C729.18 400.95 731.27 401.5 733.68 401.5C736.1 401.5 738.13 400.95 739.78 399.85C741.53 398.75 742.91 397.27 743.89 395.4C744.88 393.43 745.38 391.34 745.38 389.14C745.38 386.84 744.88 384.75 743.89 382.89C742.91 381.02 741.53 379.54 739.78 378.44C738.13 377.23 736.1 376.63 733.68 376.63C731.27 376.63 729.18 377.23 727.43 378.44C725.67 379.54 724.3 381.02 723.31 382.89ZM866.12 382.89C865.13 384.75 864.64 386.84 864.64 389.14C864.64 391.34 865.13 393.43 866.12 395.4C867.11 397.27 868.48 398.75 870.24 399.85C871.99 400.95 874.08 401.5 876.49 401.5C878.91 401.5 880.94 400.95 882.59 399.85C884.34 398.75 885.72 397.27 886.7 395.4C887.69 393.43 888.19 391.34 888.19 389.14C888.19 386.84 887.69 384.75 886.7 382.89C885.72 381.02 884.34 379.54 882.59 378.44C880.94 377.23 878.91 376.63 876.49 376.63C874.08 376.63 871.99 377.23 870.24 378.44C868.48 379.54 867.11 381.02 866.12 382.89ZM1008.93 382.89C1007.94 384.75 1007.45 386.84 1007.45 389.14C1007.45 391.34 1007.94 393.43 1008.93 395.4C1009.92 397.27 1011.29 398.75 1013.05 399.85C1014.81 400.95 1016.89 401.5 1019.31 401.5C1021.72 401.5 1023.75 400.95 1025.4 399.85C1027.16 398.75 1028.53 397.27 1029.52 395.4C1030.5 393.43 1031 391.34 1031 389.14C1031 386.84 1030.5 384.75 1029.52 382.89C1028.53 381.02 1027.16 379.54 1025.4 378.44C1023.75 377.23 1021.72 376.63 1019.31 376.63C1016.89 376.63 1014.81 377.23 1013.05 378.44C1011.29 379.54 1009.92 381.02 1008.93 382.89ZM1151.74 382.89C1150.75 384.75 1150.26 386.84 1150.26 389.14C1150.26 391.34 1150.75 393.43 1151.74 395.4C1152.73 397.27 1154.1 398.75 1155.86 399.85C1157.61 400.95 1159.69 401.5 1162.12 401.5C1164.53 401.5 1166.56 400.95 1168.21 399.85C1169.97 398.75 1171.34 397.27 1172.32 395.4C1173.31 393.43 1173.81 391.34 1173.81 389.14C1173.81 386.84 1173.31 384.75 1172.32 382.89C1171.34 381.02 1169.97 379.54 1168.21 378.44C1166.56 377.23 1164.53 376.63 1162.12 376.63C1159.69 376.63 1157.61 377.23 1155.86 378.44C1154.1 379.54 1152.73 381.02 1151.74 382.89ZM1294.55 382.89C1293.56 384.75 1293.06 386.84 1293.06 389.14C1293.06 391.34 1293.56 393.43 1294.55 395.4C1295.54 397.27 1296.91 398.75 1298.67 399.85C1300.42 400.95 1302.51 401.5 1304.93 401.5C1307.34 401.5 1309.37 400.95 1311.02 399.85C1312.77 398.75 1314.15 397.27 1315.14 395.4C1316.12 393.43 1316.62 391.34 1316.62 389.14C1316.62 386.84 1316.12 384.75 1315.14 382.89C1314.15 381.02 1312.77 379.54 1311.02 378.44C1309.37 377.23 1307.34 376.63 1304.93 376.63C1302.51 376.63 1300.42 377.23 1298.67 378.44C1296.91 379.54 1295.54 381.02 1294.55 382.89ZM66.9 462.29Q64.92 457.23 64.92 451.39Q64.92 445.56 66.9 440.5L66.9 440.5Q67.66 438.56 68.71 436.74Q70.84 433.1 73.78 430.33Q76.3 427.95 79.42 426.2C83.92 423.56 88.97 422.24 94.57 422.24C100.28 422.24 105.33 423.56 109.72 426.2C114.22 428.72 117.73 432.24 120.26 436.74C122.78 441.13 124.05 446.01 124.05 451.39C124.05 456.77 122.78 461.66 120.26 466.05C117.73 470.44 114.22 473.95 109.72 476.59C105.33 479.22 100.28 480.54 94.57 480.54C88.97 480.54 83.92 479.22 79.42 476.59C74.92 473.95 71.35 470.44 68.71 466.05Q67.66 464.22 66.9 462.29ZM211.52 466.05C209 461.66 207.73 456.77 207.73 451.39C207.73 446.01 209 441.13 211.52 436.74Q213.65 433.1 216.59 430.33L216.59 430.33Q219.11 427.95 222.23 426.2C226.73 423.56 231.78 422.24 237.38 422.24C243.09 422.24 248.14 423.56 252.53 426.2C257.03 428.72 260.54 432.24 263.07 436.74C265.59 441.13 266.85 446.01 266.85 451.39C266.85 456.77 265.59 461.66 263.07 466.05C260.54 470.44 257.03 473.95 252.53 476.59C248.14 479.22 243.09 480.54 237.38 480.54C231.78 480.54 226.73 479.22 222.23 476.59C217.73 473.95 214.16 470.44 211.52 466.05ZM354.33 466.05C351.81 461.66 350.54 456.77 350.54 451.39C350.54 446.01 351.81 441.13 354.33 436.74Q356.46 433.1 359.4 430.33Q361.92 427.95 365.04 426.2C369.54 423.56 374.59 422.24 380.19 422.24C385.9 422.24 390.95 423.56 395.34 426.2C399.84 428.72 403.35 432.24 405.88 436.74C408.4 441.13 409.66 446.01 409.66 451.39C409.66 456.77 408.4 461.66 405.88 466.05C403.35 470.44 399.84 473.95 395.34 476.59C390.95 479.22 385.9 480.54 380.19 480.54C374.59 480.54 369.54 479.22 365.04 476.59C360.53 473.95 356.97 470.44 354.33 466.05ZM497.14 466.05C494.62 461.66 493.35 456.77 493.35 451.39C493.35 446.01 494.62 441.13 497.14 436.74C499.78 432.24 503.34 428.72 507.84 426.2C512.35 423.56 517.4 422.24 523 422.24C528.7 422.24 533.75 423.56 538.15 426.2C542.65 428.72 546.16 432.24 548.69 436.74C551.21 441.13 552.47 446.01 552.47 451.39C552.47 456.77 551.21 461.66 548.69 466.05C546.16 470.44 542.65 473.95 538.15 476.59C533.75 479.22 528.7 480.54 523 480.54C517.4 480.54 512.35 479.22 507.84 476.59C503.34 473.95 499.78 470.44 497.14 466.05ZM639.95 466.05C637.42 461.66 636.16 456.77 636.16 451.39C636.16 446.01 637.42 441.13 639.95 436.74C642.58 432.24 646.15 428.72 650.65 426.2C655.15 423.56 660.21 422.24 665.8 422.24C671.51 422.24 676.56 423.56 680.96 426.2Q684.33 428.09 686.97 430.73Q689.6 433.36 691.49 436.74C694.02 441.13 695.28 446.01 695.28 451.39C695.28 456.77 694.02 461.66 691.49 466.05C688.97 470.44 685.46 473.95 680.96 476.59C676.56 479.22 671.51 480.54 665.8 480.54C660.21 480.54 655.15 479.22 650.65 476.59C646.15 473.95 642.58 470.44 639.95 466.05ZM782.76 466.05C780.23 461.66 778.97 456.77 778.97 451.39C778.97 446.01 780.23 441.13 782.76 436.74C785.39 432.24 788.96 428.72 793.46 426.2C797.96 423.56 803.01 422.24 808.61 422.24C814.32 422.24 819.37 423.56 823.76 426.2Q827.14 428.09 829.78 430.73Q832.41 433.36 834.3 436.74C836.83 441.13 838.09 446.01 838.09 451.39C838.09 456.77 836.83 461.66 834.3 466.05C831.78 470.44 828.27 473.95 823.76 476.59C819.37 479.22 814.32 480.54 808.61 480.54C803.01 480.54 797.96 479.22 793.46 476.59C788.96 473.95 785.39 470.44 782.76 466.05ZM925.57 466.05C923.04 461.66 921.78 456.77 921.78 451.39C921.78 446.01 923.04 441.13 925.57 436.74C928.2 432.24 931.77 428.72 936.27 426.2C940.77 423.56 945.82 422.24 951.42 422.24C957.13 422.24 962.18 423.56 966.57 426.2Q969.95 428.09 972.58 430.73Q975.22 433.36 977.11 436.74C979.64 441.13 980.9 446.01 980.9 451.39C980.9 456.77 979.64 461.66 977.11 466.05C974.59 470.44 971.07 473.95 966.57 476.59C962.18 479.22 957.13 480.54 951.42 480.54C945.82 480.54 940.77 479.22 936.27 476.59C931.77 473.95 928.2 470.44 925.57 466.05ZM1068.38 466.05C1065.86 461.66 1064.59 456.77 1064.59 451.39C1064.59 446.01 1065.86 441.13 1068.38 436.74C1071.02 432.24 1074.57 428.72 1079.09 426.2C1083.59 423.56 1088.64 422.24 1094.24 422.24C1099.94 422.24 1105 423.56 1109.39 426.2C1113.89 428.72 1117.4 432.24 1119.93 436.74C1122.44 441.13 1123.71 446.01 1123.71 451.39C1123.71 456.77 1122.44 461.66 1119.93 466.05C1117.4 470.44 1113.89 473.95 1109.39 476.59C1105 479.22 1099.94 480.54 1094.24 480.54C1088.64 480.54 1083.59 479.22 1079.09 476.59C1074.57 473.95 1071.02 470.44 1068.38 466.05ZM1211.18 466.05C1208.67 461.66 1207.4 456.77 1207.4 451.39C1207.4 446.01 1208.67 441.13 1211.18 436.74C1213.82 432.24 1217.39 428.72 1221.9 426.2C1226.4 423.56 1231.44 422.24 1237.05 422.24C1242.75 422.24 1247.8 423.56 1252.19 426.2C1256.69 428.72 1260.21 432.24 1262.74 436.74C1265.26 441.13 1266.52 446.01 1266.52 451.39C1266.52 456.77 1265.26 461.66 1262.74 466.05C1260.21 470.44 1256.69 473.95 1252.19 476.59C1247.8 479.22 1242.75 480.54 1237.05 480.54C1231.44 480.54 1226.4 479.22 1221.9 476.59C1217.39 473.95 1213.82 470.44 1211.18 466.05ZM1354 466.05C1351.47 461.66 1350.21 456.77 1350.21 451.39C1350.21 446.01 1351.47 441.13 1354 436.74C1356.63 432.24 1360.2 428.72 1364.7 426.2C1369.21 423.56 1374.26 422.24 1379.85 422.24C1385.56 422.24 1390.61 423.56 1395.01 426.2C1399.51 428.72 1403.02 432.24 1405.55 436.74C1408.07 441.13 1409.33 446.01 1409.33 451.39C1409.33 456.77 1408.07 461.66 1405.55 466.05C1403.02 470.44 1399.51 473.95 1395.01 476.59C1390.61 479.22 1385.56 480.54 1379.85 480.54C1374.26 480.54 1369.21 479.22 1364.7 476.59C1360.2 473.95 1356.63 470.44 1354 466.05ZM84.19 445.14C83.2 447 82.71 449.09 82.71 451.39C82.71 453.59 83.2 455.68 84.19 457.65C85.18 459.52 86.55 461 88.31 462.1C90.07 463.2 92.15 463.74 94.57 463.74C96.98 463.74 99.01 463.2 100.66 462.1C102.42 461 103.79 459.52 104.78 457.65C105.77 455.68 106.26 453.59 106.26 451.39C106.26 449.09 105.77 447 104.78 445.14C103.79 443.27 102.42 441.79 100.66 440.69C99.01 439.59 96.98 439.04 94.57 439.04C92.15 439.04 90.07 439.59 88.31 440.69C86.55 441.79 85.18 443.27 84.19 445.14ZM227 445.14C226.01 447 225.52 449.09 225.52 451.39C225.52 453.59 226.01 455.68 227 457.65C227.99 459.52 229.36 461 231.12 462.1C232.88 463.2 234.96 463.74 237.38 463.74C239.79 463.74 241.82 463.2 243.47 462.1C245.23 461 246.6 459.52 247.59 457.65C248.58 455.68 249.07 453.59 249.07 451.39C249.07 449.09 248.58 447 247.59 445.14C246.6 443.27 245.23 441.79 243.47 440.69C241.82 439.59 239.79 439.04 237.38 439.04C234.96 439.04 232.88 439.59 231.12 440.69C229.36 441.79 227.99 443.27 227 445.14ZM369.81 445.14C368.82 447 368.33 449.09 368.33 451.39C368.33 453.59 368.82 455.68 369.81 457.65C370.8 459.52 372.17 461 373.93 462.1C375.68 463.2 377.77 463.74 380.19 463.74Q383.81 463.74 386.28 462.1C388.04 461 389.41 459.52 390.4 457.65C391.38 455.68 391.88 453.59 391.88 451.39C391.88 449.09 391.38 447 390.4 445.14C389.41 443.27 388.04 441.79 386.28 440.69C384.63 439.59 382.6 439.04 380.19 439.04C377.77 439.04 375.68 439.59 373.93 440.69C372.17 441.79 370.8 443.27 369.81 445.14ZM512.62 445.14C511.63 447 511.14 449.09 511.14 451.39C511.14 453.59 511.63 455.68 512.62 457.65C513.61 459.52 514.98 461 516.74 462.1C518.49 463.2 520.58 463.74 523 463.74Q526.62 463.74 529.09 462.1C530.84 461 532.22 459.52 533.21 457.65C534.19 455.68 534.69 453.59 534.69 451.39C534.69 449.09 534.19 447 533.21 445.14C532.22 443.27 530.84 441.79 529.09 440.69C527.44 439.59 525.41 439.04 523 439.04C520.58 439.04 518.49 439.59 516.74 440.69C514.98 441.79 513.61 443.27 512.62 445.14ZM655.43 445.14C654.44 447 653.95 449.09 653.95 451.39C653.95 453.59 654.44 455.68 655.43 457.65C656.42 459.52 657.79 461 659.55 462.1C661.3 463.2 663.39 463.74 665.8 463.74C668.22 463.74 670.25 463.2 671.9 462.1C673.65 461 675.03 459.52 676.01 457.65C677 455.68 677.5 453.59 677.5 451.39C677.5 449.09 677 447 676.01 445.14C675.03 443.27 673.65 441.79 671.9 440.69C670.25 439.59 668.22 439.04 665.8 439.04C663.39 439.04 661.3 439.59 659.55 440.69C657.79 441.79 656.42 443.27 655.43 445.14ZM798.24 445.14C797.25 447 796.76 449.09 796.76 451.39C796.76 453.59 797.25 455.68 798.24 457.65C799.23 459.52 800.6 461 802.36 462.1C804.11 463.2 806.2 463.74 808.61 463.74C811.03 463.74 813.06 463.2 814.71 462.1C816.46 461 817.84 459.52 818.82 457.65C819.81 455.68 820.31 453.59 820.31 451.39C820.31 449.09 819.81 447 818.82 445.14C817.84 443.27 816.46 441.79 814.71 440.69C813.06 439.59 811.03 439.04 808.61 439.04C806.2 439.04 804.11 439.59 802.36 440.69C800.6 441.79 799.23 443.27 798.24 445.14ZM941.05 445.14C940.06 447 939.57 449.09 939.57 451.39C939.57 453.59 940.06 455.68 941.05 457.65C942.04 459.52 943.41 461 945.16 462.1C946.92 463.2 949.01 463.74 951.42 463.74C953.84 463.74 955.87 463.2 957.52 462.1C959.27 461 960.64 459.52 961.63 457.65C962.62 455.68 963.12 453.59 963.12 451.39C963.12 449.09 962.62 447 961.63 445.14C960.64 443.27 959.27 441.79 957.52 440.69C955.87 439.59 953.84 439.04 951.42 439.04C949.01 439.04 946.92 439.59 945.16 440.69C943.41 441.79 942.04 443.27 941.05 445.14ZM1083.86 445.14C1082.87 447 1082.38 449.09 1082.38 451.39C1082.38 453.59 1082.87 455.68 1083.86 457.65C1084.85 459.52 1086.22 461 1087.98 462.1Q1088.06 462.15 1088.13 462.19Q1090.72 463.74 1094.24 463.74C1096.65 463.74 1098.68 463.2 1100.32 462.1C1102.09 461 1103.46 459.52 1104.44 457.65C1105.43 455.68 1105.93 453.59 1105.93 451.39C1105.93 449.09 1105.43 447 1104.44 445.14C1103.46 443.27 1102.09 441.79 1100.32 440.69C1098.68 439.59 1096.65 439.04 1094.24 439.04C1091.81 439.04 1089.74 439.59 1087.98 440.69C1086.22 441.79 1084.85 443.27 1083.86 445.14ZM1226.67 445.14C1225.68 447 1225.18 449.09 1225.18 451.39C1225.18 453.59 1225.68 455.68 1226.67 457.65C1227.66 459.52 1229.03 461 1230.79 462.1Q1230.87 462.15 1230.93 462.19Q1233.53 463.74 1237.05 463.74C1239.46 463.74 1241.49 463.2 1243.14 462.1C1244.9 461 1246.27 459.52 1247.26 457.65C1248.24 455.68 1248.74 453.59 1248.74 451.39C1248.74 449.09 1248.24 447 1247.26 445.14C1246.27 443.27 1244.9 441.79 1243.14 440.69C1241.49 439.59 1239.46 439.04 1237.05 439.04C1234.63 439.04 1232.54 439.59 1230.79 440.69C1229.03 441.79 1227.66 443.27 1226.67 445.14ZM1369.48 445.14C1368.49 447 1368 449.09 1368 451.39C1368 453.59 1368.49 455.68 1369.48 457.65C1370.47 459.52 1371.84 461 1373.6 462.1Q1373.67 462.15 1373.75 462.19Q1376.34 463.74 1379.85 463.74C1382.27 463.74 1384.3 463.2 1385.95 462.1C1387.7 461 1389.08 459.52 1390.06 457.65C1391.05 455.68 1391.55 453.59 1391.55 451.39C1391.55 449.09 1391.05 447 1390.06 445.14C1389.08 443.27 1387.7 441.79 1385.95 440.69C1384.3 439.59 1382.27 439.04 1379.85 439.04C1377.44 439.04 1375.35 439.59 1373.6 440.69C1371.84 441.79 1370.47 443.27 1369.48 445.14Z" fill="#FFFFFF" fill-opacity="0.080000" fill-rule="evenodd"/>
	</g>
	<g mask="url(#mask2_552)">
		<path id="%%%%%%%%%%" d="M1408.28 397.94L1408.28 397.94Q1407 393.74 1407 389.14Q1407 382.6 1409.39 377.09L1409.39 377.09Q1410.01 375.67 1410.79 374.32Q1412.65 371.22 1415.13 368.74Q1417.92 365.95 1421.49 363.95Q1423.15 362.98 1424.91 362.25Q1430.31 360 1436.64 360Q1444.06 360 1450 362.96Q1450.91 363.42 1451.79 363.95Q1455.62 366.09 1458.49 369.13Q1460.69 371.46 1462.33 374.32C1464.86 378.71 1466.12 383.65 1466.12 389.14C1466.12 394.41 1464.86 399.3 1462.33 403.8Q1460.86 406.37 1458.93 408.53Q1455.91 411.93 1451.79 414.34Q1450.91 414.87 1450 415.32Q1444.06 418.29 1436.64 418.29Q1430.31 418.29 1424.91 416.04Q1423.15 415.31 1421.49 414.34Q1417.61 412.07 1414.66 408.93Q1412.47 406.6 1410.79 403.8Q1409.2 400.97 1408.28 397.94ZM1553.6 403.8C1551.07 399.3 1549.81 394.41 1549.81 389.14C1549.81 383.65 1551.07 378.71 1553.6 374.32Q1555.46 371.22 1557.94 368.74Q1560.73 365.95 1564.3 363.95C1568.8 361.31 1573.85 360 1579.45 360C1585.16 360 1590.21 361.31 1594.6 363.95C1599.1 366.47 1602.62 369.93 1605.14 374.32C1607.67 378.71 1608.93 383.65 1608.93 389.14C1608.93 394.41 1607.67 399.3 1605.14 403.8C1602.62 408.19 1599.1 411.71 1594.6 414.34C1590.21 416.98 1585.16 418.29 1579.45 418.29C1573.85 418.29 1568.8 416.98 1564.3 414.34Q1560.42 412.07 1557.47 408.93Q1555.28 406.6 1553.6 403.8ZM1696.41 403.8C1693.88 399.3 1692.62 394.41 1692.62 389.14C1692.62 383.65 1693.88 378.71 1696.41 374.32Q1698.27 371.22 1700.75 368.74L1700.75 368.74Q1703.54 365.95 1707.11 363.95C1711.61 361.31 1716.66 360 1722.26 360C1727.97 360 1733.02 361.31 1737.41 363.95C1741.91 366.47 1745.43 369.93 1747.95 374.32C1750.48 378.71 1751.74 383.65 1751.74 389.14C1751.74 394.41 1750.48 399.3 1747.95 403.8C1745.43 408.19 1741.91 411.71 1737.41 414.34C1733.02 416.98 1727.97 418.29 1722.26 418.29C1716.66 418.29 1711.61 416.98 1707.11 414.34Q1703.23 412.07 1700.28 408.93Q1698.09 406.6 1696.41 403.8ZM1839.22 403.8C1836.69 399.3 1835.43 394.41 1835.43 389.14C1835.43 383.65 1836.69 378.71 1839.22 374.32Q1841.07 371.22 1843.55 368.74L1843.55 368.74Q1846.34 365.95 1849.92 363.95C1854.42 361.31 1859.47 360 1865.07 360C1870.78 360 1875.83 361.31 1880.22 363.95C1884.72 366.47 1888.24 369.93 1890.76 374.32C1893.29 378.71 1894.55 383.65 1894.55 389.14C1894.55 394.41 1893.29 399.3 1890.76 403.8C1888.24 408.19 1884.72 411.71 1880.22 414.34C1875.83 416.98 1870.78 418.29 1865.07 418.29C1859.47 418.29 1854.42 416.98 1849.92 414.34Q1846.04 412.07 1843.09 408.93Q1840.9 406.6 1839.22 403.8ZM1982.02 403.8C1979.5 399.3 1978.24 394.41 1978.24 389.14C1978.24 383.65 1979.5 378.71 1982.02 374.32C1984.66 369.93 1988.23 366.47 1992.73 363.95C1997.23 361.31 2002.28 360 2007.88 360C2013.59 360 2018.64 361.31 2023.03 363.95Q2026.85 366.09 2029.72 369.13L2029.73 369.13Q2031.93 371.47 2033.57 374.32C2036.09 378.71 2037.36 383.65 2037.36 389.14C2037.36 394.41 2036.09 399.3 2033.57 403.8Q2032.09 406.37 2030.17 408.53Q2027.15 411.93 2023.03 414.34C2018.64 416.98 2013.59 418.29 2007.88 418.29C2002.28 418.29 1997.23 416.98 1992.73 414.34C1988.23 411.71 1984.66 408.19 1982.02 403.8ZM2124.83 403.8C2122.31 399.3 2121.05 394.41 2121.05 389.14C2121.05 383.65 2122.31 378.71 2124.83 374.32C2127.47 369.93 2131.04 366.47 2135.54 363.95C2140.04 361.31 2145.09 360 2150.69 360C2156.39 360 2161.45 361.31 2165.84 363.95Q2169.65 366.09 2172.53 369.13L2172.53 369.13Q2174.74 371.47 2176.37 374.32C2178.89 378.71 2180.17 383.65 2180.17 389.14C2180.17 394.41 2178.89 399.3 2176.37 403.8Q2174.89 406.37 2172.98 408.53Q2169.96 411.93 2165.84 414.34C2161.45 416.98 2156.39 418.29 2150.69 418.29C2145.09 418.29 2140.04 416.98 2135.54 414.34C2131.04 411.71 2127.47 408.19 2124.83 403.8ZM2267.63 403.8C2265.12 399.3 2263.85 394.41 2263.85 389.14C2263.85 383.65 2265.12 378.71 2267.63 374.32C2270.28 369.93 2273.85 366.47 2278.35 363.95C2282.85 361.31 2287.89 360 2293.5 360C2299.21 360 2304.26 361.31 2308.64 363.95Q2312.47 366.09 2315.34 369.13L2315.34 369.13Q2317.54 371.46 2319.19 374.32C2321.71 378.71 2322.98 383.65 2322.98 389.14C2322.98 394.41 2321.71 399.3 2319.19 403.8Q2317.71 406.37 2315.79 408.53L2315.79 408.53Q2312.77 411.93 2308.64 414.34C2304.26 416.98 2299.21 418.29 2293.5 418.29C2287.89 418.29 2282.85 416.98 2278.35 414.34C2273.85 411.71 2270.28 408.19 2267.63 403.8ZM2410.45 403.8C2407.93 399.3 2406.65 394.41 2406.65 389.14C2406.65 383.65 2407.93 378.71 2410.45 374.32C2413.09 369.93 2416.64 366.47 2421.15 363.95C2425.65 361.31 2430.71 360 2436.31 360C2442.02 360 2447.07 361.31 2451.46 363.95Q2455.28 366.09 2458.14 369.13L2458.14 369.13Q2460.35 371.46 2462 374.32C2464.52 378.71 2465.78 383.65 2465.78 389.14C2465.78 394.41 2464.52 399.3 2462 403.8Q2460.52 406.37 2458.59 408.53L2458.59 408.54Q2455.58 411.93 2451.46 414.34C2447.07 416.98 2442.02 418.29 2436.31 418.29C2430.71 418.29 2425.65 416.98 2421.15 414.34C2416.64 411.71 2413.09 408.19 2410.45 403.8ZM2553.26 403.8C2550.74 399.3 2549.47 394.41 2549.47 389.14C2549.47 383.65 2550.74 378.71 2553.26 374.32C2555.89 369.93 2559.46 366.47 2563.97 363.95C2568.47 361.31 2573.52 360 2579.12 360C2584.83 360 2589.87 361.31 2594.27 363.95Q2598.09 366.09 2600.96 369.13L2600.96 369.13Q2603.15 371.46 2604.81 374.32C2607.33 378.71 2608.59 383.65 2608.59 389.14C2608.59 394.41 2607.33 399.3 2604.81 403.8Q2603.33 406.37 2601.39 408.53L2601.39 408.54Q2598.38 411.93 2594.27 414.34C2589.87 416.98 2584.83 418.29 2579.12 418.29C2573.52 418.29 2568.47 416.98 2563.97 414.34C2559.46 411.71 2555.89 408.19 2553.26 403.8ZM2696.07 403.8C2693.54 399.3 2692.28 394.41 2692.28 389.14C2692.28 383.65 2693.54 378.71 2696.07 374.32C2698.71 369.93 2702.27 366.47 2706.77 363.95C2711.28 361.31 2716.33 360 2721.93 360C2727.63 360 2732.68 361.31 2737.08 363.95Q2740.9 366.09 2743.77 369.13L2743.77 369.13Q2745.97 371.46 2747.62 374.32C2750.14 378.71 2751.4 383.65 2751.4 389.14C2751.4 394.41 2750.14 399.3 2747.62 403.8Q2746.14 406.37 2744.21 408.53L2744.21 408.54Q2741.2 411.93 2737.08 414.34C2732.68 416.98 2727.63 418.29 2721.93 418.29C2716.33 418.29 2711.28 416.98 2706.77 414.34C2702.27 411.71 2698.71 408.19 2696.07 403.8ZM1421.33 477.91L1505.31 362.63L1526.89 362.63L1442.9 477.91L1421.33 477.91ZM1564.14 477.91L1648.12 362.63L1669.7 362.63L1585.71 477.91L1564.14 477.91ZM1706.95 477.91L1790.93 362.63L1812.51 362.63L1728.52 477.91L1706.95 477.91ZM1849.75 477.91L1933.74 362.63L1955.32 362.63L1871.33 477.91L1849.75 477.91ZM1992.56 477.91L2076.55 362.63L2098.12 362.63L2014.14 477.91L1992.56 477.91ZM2135.37 477.91L2219.36 362.63L2240.93 362.63L2156.95 477.91L2135.37 477.91ZM2278.18 477.91L2362.17 362.63L2383.74 362.63L2299.76 477.91L2278.18 477.91ZM2420.99 477.91L2504.98 362.63L2526.55 362.63L2442.56 477.91L2420.99 477.91ZM2563.8 477.91L2647.79 362.63L2669.36 362.63L2585.37 477.91L2563.8 477.91ZM2706.61 477.91L2790.6 362.63L2812.17 362.63L2728.18 477.91L2706.61 477.91ZM1426.27 382.89C1425.28 384.75 1424.79 386.84 1424.79 389.14C1424.79 391.34 1425.28 393.43 1426.27 395.4C1427.26 397.27 1428.63 398.75 1430.38 399.85C1432.14 400.95 1434.23 401.5 1436.64 401.5C1439.06 401.5 1441.09 400.95 1442.74 399.85C1444.49 398.75 1445.86 397.27 1446.85 395.4C1447.84 393.43 1448.33 391.34 1448.33 389.14C1448.33 386.84 1447.84 384.75 1446.85 382.89C1445.86 381.02 1444.49 379.54 1442.74 378.44C1441.09 377.23 1439.06 376.63 1436.64 376.63C1434.23 376.63 1432.14 377.23 1430.38 378.44C1428.63 379.54 1427.26 381.02 1426.27 382.89ZM1569.08 382.89C1568.09 384.75 1567.59 386.84 1567.59 389.14C1567.59 391.34 1568.09 393.43 1569.08 395.4C1570.06 397.27 1571.44 398.75 1573.19 399.85C1574.95 400.95 1577.04 401.5 1579.45 401.5C1581.87 401.5 1583.9 400.95 1585.54 399.85C1587.3 398.75 1588.67 397.27 1589.66 395.4C1590.65 393.43 1591.14 391.34 1591.14 389.14C1591.14 386.84 1590.65 384.75 1589.66 382.89C1588.67 381.02 1587.3 379.54 1585.54 378.44C1583.9 377.23 1581.87 376.63 1579.45 376.63C1577.04 376.63 1574.95 377.23 1573.19 378.44C1571.44 379.54 1570.06 381.02 1569.08 382.89ZM1711.89 382.89C1710.9 384.75 1710.4 386.84 1710.4 389.14C1710.4 391.34 1710.9 393.43 1711.89 395.4C1712.87 397.27 1714.25 398.75 1716 399.85C1717.76 400.95 1719.85 401.5 1722.26 401.5C1724.68 401.5 1726.71 400.95 1728.35 399.85C1730.11 398.75 1731.48 397.27 1732.47 395.4C1733.46 393.43 1733.95 391.34 1733.95 389.14C1733.95 386.84 1733.46 384.75 1732.47 382.89C1731.48 381.02 1730.11 379.54 1728.35 378.44C1726.71 377.23 1724.68 376.63 1722.26 376.63C1719.85 376.63 1717.76 377.23 1716 378.44C1714.25 379.54 1712.87 381.02 1711.89 382.89ZM1854.7 382.89C1853.71 384.75 1853.21 386.84 1853.21 389.14C1853.21 391.34 1853.71 393.43 1854.7 395.4C1855.68 397.27 1857.06 398.75 1858.81 399.85C1860.57 400.95 1862.65 401.5 1865.07 401.5C1867.49 401.5 1869.52 400.95 1871.16 399.85C1872.92 398.75 1874.29 397.27 1875.28 395.4C1876.27 393.43 1876.76 391.34 1876.76 389.14C1876.76 386.84 1876.27 384.75 1875.28 382.89C1874.29 381.02 1872.92 379.54 1871.16 378.44C1869.52 377.23 1867.49 376.63 1865.07 376.63C1862.65 376.63 1860.57 377.23 1858.81 378.44C1857.06 379.54 1855.68 381.02 1854.7 382.89ZM1997.5 382.89C1996.52 384.75 1996.02 386.84 1996.02 389.14C1996.02 391.34 1996.52 393.43 1997.5 395.4C1998.49 397.27 1999.86 398.75 2001.62 399.85C2003.38 400.95 2005.46 401.5 2007.88 401.5C2010.29 401.5 2012.33 400.95 2013.97 399.85C2015.73 398.75 2017.1 397.27 2018.09 395.4C2019.08 393.43 2019.57 391.34 2019.57 389.14C2019.57 386.84 2019.08 384.75 2018.09 382.89C2017.1 381.02 2015.73 379.54 2013.97 378.44C2012.33 377.23 2010.29 376.63 2007.88 376.63C2005.46 376.63 2003.38 377.23 2001.62 378.44C1999.86 379.54 1998.49 381.02 1997.5 382.89ZM2140.31 382.89C2139.33 384.75 2138.83 386.84 2138.83 389.14C2138.83 391.34 2139.33 393.43 2140.31 395.4C2141.3 397.27 2142.67 398.75 2144.43 399.85C2146.19 400.95 2148.27 401.5 2150.69 401.5C2153.1 401.5 2155.12 400.95 2156.78 399.85C2158.54 398.75 2159.9 397.27 2160.89 395.4C2161.88 393.43 2162.37 391.34 2162.37 389.14C2162.37 386.84 2161.88 384.75 2160.89 382.89C2159.9 381.02 2158.54 379.54 2156.78 378.44C2155.12 377.23 2153.1 376.63 2150.69 376.63C2148.27 376.63 2146.19 377.23 2144.43 378.44C2142.67 379.54 2141.3 381.02 2140.31 382.89ZM2283.12 382.89C2282.12 384.75 2281.63 386.84 2281.63 389.14C2281.63 391.34 2282.12 393.43 2283.12 395.4C2284.11 397.27 2285.48 398.75 2287.24 399.85C2289 400.95 2291.08 401.5 2293.5 401.5C2295.9 401.5 2297.94 400.95 2299.59 399.85C2301.35 398.75 2302.72 397.27 2303.71 395.4C2304.7 393.43 2305.19 391.34 2305.19 389.14C2305.19 386.84 2304.7 384.75 2303.71 382.89C2302.72 381.02 2301.35 379.54 2299.59 378.44C2297.94 377.23 2295.9 376.63 2293.5 376.63C2291.08 376.63 2289 377.23 2287.24 378.44C2285.48 379.54 2284.11 381.02 2283.12 382.89ZM2425.93 382.89C2424.94 384.75 2424.45 386.84 2424.45 389.14C2424.45 391.34 2424.94 393.43 2425.93 395.4C2426.92 397.27 2428.29 398.75 2430.05 399.85C2431.81 400.95 2433.88 401.5 2436.31 401.5C2438.72 401.5 2440.75 400.95 2442.39 399.85C2444.15 398.75 2445.53 397.27 2446.52 395.4C2447.5 393.43 2448 391.34 2448 389.14C2448 386.84 2447.5 384.75 2446.52 382.89C2445.53 381.02 2444.15 379.54 2442.39 378.44C2440.75 377.23 2438.72 376.63 2436.31 376.63C2433.88 376.63 2431.81 377.23 2430.05 378.44C2428.29 379.54 2426.92 381.02 2425.93 382.89ZM2568.74 382.89C2567.75 384.75 2567.26 386.84 2567.26 389.14C2567.26 391.34 2567.75 393.43 2568.74 395.4C2569.73 397.27 2571.1 398.75 2572.86 399.85C2574.61 400.95 2576.7 401.5 2579.12 401.5C2581.53 401.5 2583.56 400.95 2585.21 399.85C2586.97 398.75 2588.34 397.27 2589.33 395.4C2590.31 393.43 2590.81 391.34 2590.81 389.14C2590.81 386.84 2590.31 384.75 2589.33 382.89C2588.34 381.02 2586.97 379.54 2585.21 378.44C2583.56 377.23 2581.53 376.63 2579.12 376.63C2576.7 376.63 2574.61 377.23 2572.86 378.44C2571.1 379.54 2569.73 381.02 2568.74 382.89ZM2711.55 382.89C2710.56 384.75 2710.07 386.84 2710.07 389.14C2710.07 391.34 2710.56 393.43 2711.55 395.4C2712.54 397.27 2713.91 398.75 2715.67 399.85C2717.42 400.95 2719.51 401.5 2721.93 401.5C2724.34 401.5 2726.37 400.95 2728.02 399.85C2729.77 398.75 2731.15 397.27 2732.14 395.4C2733.12 393.43 2733.62 391.34 2733.62 389.14C2733.62 386.84 2733.12 384.75 2732.14 382.89C2731.15 381.02 2729.77 379.54 2728.02 378.44C2726.37 377.23 2724.34 376.63 2721.93 376.63C2719.51 376.63 2717.42 377.23 2715.67 378.44C2713.91 379.54 2712.54 381.02 2711.55 382.89ZM1483.91 462.29Q1481.93 457.23 1481.93 451.39Q1481.93 445.56 1483.91 440.5L1483.91 440.5Q1484.67 438.56 1485.72 436.74Q1487.85 433.1 1490.78 430.33Q1493.3 427.95 1496.42 426.2C1500.92 423.56 1505.97 422.24 1511.57 422.24C1517.28 422.24 1522.33 423.56 1526.72 426.2C1531.22 428.72 1534.74 432.24 1537.26 436.74C1539.79 441.13 1541.05 446.01 1541.05 451.39C1541.05 456.77 1539.79 461.66 1537.26 466.05C1534.74 470.44 1531.22 473.95 1526.72 476.59C1522.33 479.22 1517.28 480.54 1511.57 480.54C1505.97 480.54 1500.92 479.22 1496.42 476.59C1491.92 473.95 1488.35 470.44 1485.72 466.05Q1484.67 464.22 1483.91 462.29ZM1628.53 466.05C1626 461.66 1624.74 456.77 1624.74 451.39C1624.74 446.01 1626 441.13 1628.53 436.74Q1630.65 433.1 1633.59 430.33L1633.59 430.33Q1636.11 427.95 1639.23 426.2C1643.73 423.56 1648.78 422.24 1654.38 422.24C1660.09 422.24 1665.14 423.56 1669.53 426.2C1674.03 428.72 1677.55 432.24 1680.07 436.74C1682.6 441.13 1683.86 446.01 1683.86 451.39C1683.86 456.77 1682.6 461.66 1680.07 466.05C1677.55 470.44 1674.03 473.95 1669.53 476.59C1665.14 479.22 1660.09 480.54 1654.38 480.54C1648.78 480.54 1643.73 479.22 1639.23 476.59C1634.73 473.95 1631.16 470.44 1628.53 466.05ZM1771.34 466.05C1768.81 461.66 1767.55 456.77 1767.55 451.39C1767.55 446.01 1768.81 441.13 1771.34 436.74Q1773.46 433.1 1776.4 430.33Q1778.92 427.95 1782.04 426.2C1786.54 423.56 1791.59 422.24 1797.19 422.24C1802.9 422.24 1807.95 423.56 1812.34 426.2C1816.84 428.72 1820.36 432.24 1822.88 436.74C1825.41 441.13 1826.67 446.01 1826.67 451.39C1826.67 456.77 1825.41 461.66 1822.88 466.05C1820.36 470.44 1816.84 473.95 1812.34 476.59C1807.95 479.22 1802.9 480.54 1797.19 480.54C1791.59 480.54 1786.54 479.22 1782.04 476.59C1777.54 473.95 1773.97 470.44 1771.34 466.05ZM1914.15 466.05C1911.62 461.66 1910.36 456.77 1910.36 451.39C1910.36 446.01 1911.62 441.13 1914.15 436.74C1916.78 432.24 1920.35 428.72 1924.85 426.2C1929.35 423.56 1934.4 422.24 1940 422.24C1945.71 422.24 1950.76 423.56 1955.15 426.2C1959.65 428.72 1963.17 432.24 1965.69 436.74C1968.22 441.13 1969.48 446.01 1969.48 451.39C1969.48 456.77 1968.22 461.66 1965.69 466.05C1963.17 470.44 1959.65 473.95 1955.15 476.59C1950.76 479.22 1945.71 480.54 1940 480.54C1934.4 480.54 1929.35 479.22 1924.85 476.59C1920.35 473.95 1916.78 470.44 1914.15 466.05ZM2056.95 466.05C2054.43 461.66 2053.17 456.77 2053.17 451.39C2053.17 446.01 2054.43 441.13 2056.95 436.74C2059.59 432.24 2063.15 428.72 2067.65 426.2C2072.15 423.56 2077.21 422.24 2082.81 422.24C2088.52 422.24 2093.57 423.56 2097.96 426.2Q2101.34 428.09 2103.97 430.73Q2106.61 433.36 2108.5 436.74C2111.02 441.13 2112.29 446.01 2112.29 451.39C2112.29 456.77 2111.02 461.66 2108.5 466.05C2105.97 470.44 2102.46 473.95 2097.96 476.59C2093.57 479.22 2088.52 480.54 2082.81 480.54C2077.21 480.54 2072.15 479.22 2067.65 476.59C2063.15 473.95 2059.59 470.44 2056.95 466.05ZM2199.76 466.05C2197.24 461.66 2195.98 456.77 2195.98 451.39C2195.98 446.01 2197.24 441.13 2199.76 436.74C2202.39 432.24 2205.97 428.72 2210.47 426.2C2214.97 423.56 2220.02 422.24 2225.62 422.24C2231.33 422.24 2236.37 423.56 2240.77 426.2Q2244.14 428.09 2246.78 430.73Q2249.42 433.36 2251.31 436.74C2253.83 441.13 2255.1 446.01 2255.1 451.39C2255.1 456.77 2253.83 461.66 2251.31 466.05C2248.78 470.44 2245.27 473.95 2240.77 476.59C2236.37 479.22 2231.33 480.54 2225.62 480.54C2220.02 480.54 2214.97 479.22 2210.47 476.59C2205.97 473.95 2202.39 470.44 2199.76 466.05ZM2342.57 466.05C2340.05 461.66 2338.78 456.77 2338.78 451.39C2338.78 446.01 2340.05 441.13 2342.57 436.74C2345.21 432.24 2348.78 428.72 2353.28 426.2C2357.78 423.56 2362.83 422.24 2368.43 422.24C2374.13 422.24 2379.19 423.56 2383.58 426.2Q2386.95 428.09 2389.59 430.73Q2392.22 433.36 2394.12 436.74C2396.63 441.13 2397.9 446.01 2397.9 451.39C2397.9 456.77 2396.63 461.66 2394.12 466.05C2391.59 470.44 2388.08 473.95 2383.58 476.59C2379.19 479.22 2374.13 480.54 2368.43 480.54C2362.83 480.54 2357.78 479.22 2353.28 476.59C2348.78 473.95 2345.21 470.44 2342.57 466.05ZM2485.37 466.05C2482.86 461.66 2481.59 456.77 2481.59 451.39C2481.59 446.01 2482.86 441.13 2485.37 436.74C2488.02 432.24 2491.58 428.72 2496.09 426.2C2500.59 423.56 2505.63 422.24 2511.24 422.24C2516.95 422.24 2522 423.56 2526.38 426.2C2530.88 428.72 2534.39 432.24 2536.93 436.74C2539.45 441.13 2540.71 446.01 2540.71 451.39C2540.71 456.77 2539.45 461.66 2536.93 466.05C2534.39 470.44 2530.88 473.95 2526.38 476.59C2522 479.22 2516.95 480.54 2511.24 480.54C2505.63 480.54 2500.59 479.22 2496.09 476.59C2491.58 473.95 2488.02 470.44 2485.37 466.05ZM2628.19 466.05C2625.67 461.66 2624.4 456.77 2624.4 451.39C2624.4 446.01 2625.67 441.13 2628.19 436.74C2630.83 432.24 2634.39 428.72 2638.9 426.2C2643.4 423.56 2648.45 422.24 2654.05 422.24C2659.75 422.24 2664.8 423.56 2669.2 426.2C2673.7 428.72 2677.21 432.24 2679.74 436.74C2682.26 441.13 2683.52 446.01 2683.52 451.39C2683.52 456.77 2682.26 461.66 2679.74 466.05C2677.21 470.44 2673.7 473.95 2669.2 476.59C2664.8 479.22 2659.75 480.54 2654.05 480.54C2648.45 480.54 2643.4 479.22 2638.9 476.59C2634.39 473.95 2630.83 470.44 2628.19 466.05ZM2771 466.05C2768.47 461.66 2767.21 456.77 2767.21 451.39C2767.21 446.01 2768.47 441.13 2771 436.74C2773.63 432.24 2777.2 428.72 2781.7 426.2C2786.21 423.56 2791.26 422.24 2796.85 422.24C2802.56 422.24 2807.61 423.56 2812.01 426.2C2816.51 428.72 2820.02 432.24 2822.54 436.74C2825.07 441.13 2826.33 446.01 2826.33 451.39C2826.33 456.77 2825.07 461.66 2822.54 466.05C2820.02 470.44 2816.51 473.95 2812.01 476.59C2807.61 479.22 2802.56 480.54 2796.85 480.54C2791.26 480.54 2786.21 479.22 2781.7 476.59C2777.2 473.95 2773.63 470.44 2771 466.05ZM1501.2 445.14C1500.21 447 1499.72 449.09 1499.72 451.39C1499.72 453.59 1500.21 455.68 1501.2 457.65C1502.19 459.52 1503.56 461 1505.31 462.1C1507.07 463.2 1509.16 463.74 1511.57 463.74C1513.99 463.74 1516.02 463.2 1517.67 462.1C1519.42 461 1520.79 459.52 1521.78 457.65C1522.77 455.68 1523.26 453.59 1523.26 451.39C1523.26 449.09 1522.77 447 1521.78 445.14C1520.79 443.27 1519.42 441.79 1517.67 440.69C1516.02 439.59 1513.99 439.04 1511.57 439.04C1509.16 439.04 1507.07 439.59 1505.31 440.69C1503.56 441.79 1502.19 443.27 1501.2 445.14ZM1644.01 445.14C1643.02 447 1642.52 449.09 1642.52 451.39C1642.52 453.59 1643.02 455.68 1644.01 457.65C1644.99 459.52 1646.37 461 1648.12 462.1C1649.88 463.2 1651.97 463.74 1654.38 463.74C1656.8 463.74 1658.83 463.2 1660.47 462.1C1662.23 461 1663.6 459.52 1664.59 457.65C1665.58 455.68 1666.07 453.59 1666.07 451.39C1666.07 449.09 1665.58 447 1664.59 445.14C1663.6 443.27 1662.23 441.79 1660.47 440.69C1658.83 439.59 1656.8 439.04 1654.38 439.04C1651.97 439.04 1649.88 439.59 1648.12 440.69C1646.37 441.79 1644.99 443.27 1644.01 445.14ZM1786.82 445.14C1785.83 447 1785.33 449.09 1785.33 451.39C1785.33 453.59 1785.83 455.68 1786.82 457.65C1787.8 459.52 1789.18 461 1790.93 462.1C1792.69 463.2 1794.78 463.74 1797.19 463.74Q1800.81 463.74 1803.28 462.1C1805.04 461 1806.41 459.52 1807.4 457.65C1808.39 455.68 1808.88 453.59 1808.88 451.39C1808.88 449.09 1808.39 447 1807.4 445.14C1806.41 443.27 1805.04 441.79 1803.28 440.69C1801.64 439.59 1799.61 439.04 1797.19 439.04C1794.78 439.04 1792.69 439.59 1790.93 440.69C1789.18 441.79 1787.8 443.27 1786.82 445.14ZM1929.62 445.14C1928.64 447 1928.14 449.09 1928.14 451.39C1928.14 453.59 1928.64 455.68 1929.62 457.65C1930.61 459.52 1931.99 461 1933.74 462.1C1935.5 463.2 1937.58 463.74 1940 463.74Q1943.62 463.74 1946.09 462.1C1947.85 461 1949.22 459.52 1950.21 457.65C1951.2 455.68 1951.69 453.59 1951.69 451.39C1951.69 449.09 1951.2 447 1950.21 445.14C1949.22 443.27 1947.85 441.79 1946.09 440.69C1944.45 439.59 1942.42 439.04 1940 439.04C1937.58 439.04 1935.5 439.59 1933.74 440.69C1931.99 441.79 1930.61 443.27 1929.62 445.14ZM2072.43 445.14C2071.45 447 2070.95 449.09 2070.95 451.39C2070.95 453.59 2071.45 455.68 2072.43 457.65C2073.42 459.52 2074.79 461 2076.55 462.1C2078.31 463.2 2080.38 463.74 2082.81 463.74C2085.22 463.74 2087.26 463.2 2088.89 462.1C2090.65 461 2092.03 459.52 2093.02 457.65C2094.01 455.68 2094.5 453.59 2094.5 451.39C2094.5 449.09 2094.01 447 2093.02 445.14C2092.03 443.27 2090.65 441.79 2088.89 440.69C2087.26 439.59 2085.22 439.04 2082.81 439.04C2080.38 439.04 2078.31 439.59 2076.55 440.69C2074.79 441.79 2073.42 443.27 2072.43 445.14ZM2215.24 445.14C2214.26 447 2213.76 449.09 2213.76 451.39C2213.76 453.59 2214.26 455.68 2215.24 457.65C2216.23 459.52 2217.6 461 2219.36 462.1C2221.12 463.2 2223.2 463.74 2225.62 463.74C2228.03 463.74 2230.06 463.2 2231.71 462.1C2233.47 461 2234.84 459.52 2235.83 457.65C2236.82 455.68 2237.31 453.59 2237.31 451.39C2237.31 449.09 2236.82 447 2235.83 445.14C2234.84 443.27 2233.47 441.79 2231.71 440.69C2230.06 439.59 2228.03 439.04 2225.62 439.04C2223.2 439.04 2221.12 439.59 2219.36 440.69C2217.6 441.79 2216.23 443.27 2215.24 445.14ZM2358.05 445.14C2357.06 447 2356.57 449.09 2356.57 451.39C2356.57 453.59 2357.06 455.68 2358.05 457.65C2359.04 459.52 2360.4 461 2362.17 462.1C2363.93 463.2 2366.01 463.74 2368.43 463.74C2370.84 463.74 2372.87 463.2 2374.52 462.1C2376.28 461 2377.64 459.52 2378.63 457.65C2379.62 455.68 2380.12 453.59 2380.12 451.39C2380.12 449.09 2379.62 447 2378.63 445.14C2377.64 443.27 2376.28 441.79 2374.52 440.69C2372.87 439.59 2370.84 439.04 2368.43 439.04C2366.01 439.04 2363.93 439.59 2362.17 440.69C2360.4 441.79 2359.04 443.27 2358.05 445.14ZM2500.86 445.14C2499.87 447 2499.37 449.09 2499.37 451.39C2499.37 453.59 2499.87 455.68 2500.86 457.65C2501.85 459.52 2503.22 461 2504.98 462.1Q2505.06 462.15 2505.12 462.19Q2507.72 463.74 2511.24 463.74C2513.64 463.74 2515.68 463.2 2517.33 462.1C2519.09 461 2520.46 459.52 2521.45 457.65C2522.43 455.68 2522.93 453.59 2522.93 451.39C2522.93 449.09 2522.43 447 2521.45 445.14C2520.46 443.27 2519.09 441.79 2517.33 440.69C2515.68 439.59 2513.64 439.04 2511.24 439.04C2508.82 439.04 2506.74 439.59 2504.98 440.69C2503.22 441.79 2501.85 443.27 2500.86 445.14ZM2643.67 445.14C2642.68 447 2642.19 449.09 2642.19 451.39C2642.19 453.59 2642.68 455.68 2643.67 457.65C2644.66 459.52 2646.03 461 2647.79 462.1Q2647.87 462.15 2647.94 462.19Q2650.53 463.74 2654.05 463.74C2656.46 463.74 2658.49 463.2 2660.14 462.1C2661.9 461 2663.27 459.52 2664.26 457.65C2665.24 455.68 2665.74 453.59 2665.74 451.39C2665.74 449.09 2665.24 447 2664.26 445.14C2663.27 443.27 2661.9 441.79 2660.14 440.69C2658.49 439.59 2656.46 439.04 2654.05 439.04C2651.63 439.04 2649.54 439.59 2647.79 440.69C2646.03 441.79 2644.66 443.27 2643.67 445.14ZM2786.48 445.14C2785.49 447 2785 449.09 2785 451.39C2785 453.59 2785.49 455.68 2786.48 457.65C2787.47 459.52 2788.84 461 2790.6 462.1Q2790.67 462.15 2790.75 462.19Q2793.34 463.74 2796.85 463.74C2799.27 463.74 2801.3 463.2 2802.95 462.1C2804.7 461 2806.08 459.52 2807.06 457.65C2808.05 455.68 2808.55 453.59 2808.55 451.39C2808.55 449.09 2808.05 447 2807.06 445.14C2806.08 443.27 2804.7 441.79 2802.95 440.69C2801.3 439.59 2799.27 439.04 2796.85 439.04C2794.44 439.04 2792.35 439.59 2790.6 440.69C2788.84 441.79 2787.47 443.27 2786.48 445.14Z" fill="#FFFFFF" fill-opacity="0.080000" fill-rule="evenodd"/>
	</g>
</svg>
